<svg version="1.1" xmlns="http://www.w3.org/2000/svg" xmlns:xlink="http://www.w3.org/1999/xlink" width="600" height="450" style="width: 600px; height: 450px;"><defs><clipPath id="yCAGSGIiPzvl"><path fill="none" stroke="none" d=" M 45 28 L 570 28 L 570 405 L 45 405 L 45 28 Z"/></clipPath><clipPath id="WpQlpIGKsmEg"><path fill="none" stroke="none" d=" M 45 28 L 570 28 L 570 405 L 45 405 L 45 28 Z"/></clipPath></defs><g><g transform="scale(1,1) translate(0.5,0.5)"><rect fill="#FFFFFF" stroke="none" x="0" y="0" width="600" height="450"/><rect fill="#ffffff" stroke="none" x="0" y="0" width="600" height="450"/><rect fill="#FFFFFF" stroke="none" x="45" y="28" width="525" height="377"/><rect fill="#ffffff" stroke="none" x="45" y="28" width="525" height="377"/><g><rect fill="none" stroke="#e5e5e5" x="45" y="28" width="525" height="377" stroke-linejoin="bevel" stroke-miterlimit="10"/></g><g clip-path="url(#yCAGSGIiPzvl)"><g><g><path fill="none" stroke="#e5e5e5" paint-order="fill stroke markers" d=" M 69 405 L 69 28" stroke-linejoin="bevel" stroke-miterlimit="10"/><path fill="none" stroke="#e5e5e5" paint-order="fill stroke markers" d=" M 188 405 L 188 28" stroke-linejoin="bevel" stroke-miterlimit="10"/><path fill="none" stroke="#e5e5e5" paint-order="fill stroke markers" d=" M 307 405 L 307 28" stroke-linejoin="bevel" stroke-miterlimit="10"/><path fill="none" stroke="#e5e5e5" paint-order="fill stroke markers" d=" M 427 405 L 427 28" stroke-linejoin="bevel" stroke-miterlimit="10"/><path fill="none" stroke="#e5e5e5" paint-order="fill stroke markers" d=" M 546 405 L 546 28" stroke-linejoin="bevel" stroke-miterlimit="10"/></g><g><path fill="none" stroke="#e5e5e5" paint-order="fill stroke markers" d=" M 45 396 L 570 396" stroke-linejoin="bevel" stroke-miterlimit="10"/><path fill="none" stroke="#e5e5e5" paint-order="fill stroke markers" d=" M 45 313 L 570 313" stroke-linejoin="bevel" stroke-miterlimit="10"/><path fill="none" stroke="#e5e5e5" paint-order="fill stroke markers" d=" M 45 229 L 570 229" stroke-linejoin="bevel" stroke-miterlimit="10"/><path fill="none" stroke="#e5e5e5" paint-order="fill stroke markers" d=" M 45 146 L 570 146" stroke-linejoin="bevel" stroke-miterlimit="10"/><path fill="none" stroke="#e5e5e5" paint-order="fill stroke markers" d=" M 45 62 L 570 62" stroke-linejoin="bevel" stroke-miterlimit="10"/></g><g><path fill="none" stroke="none"/><path fill="none" stroke="#66c2a5" paint-order="fill stroke markers" d=" M 68.86363636363637 315.4577785363629 L 188.1818181818182 104.68781816523506 L 307.49999999999994 58.629813271585476 L 426.8181818181818 49.03877831290515 L 546.1363636363637 45.13636363636351" stroke-linejoin="bevel" stroke-miterlimit="10" stroke-width="3"/></g><g><path fill="none" stroke="none"/><path fill="none" stroke="#fc8d62" paint-order="fill stroke markers" d=" M 68.86363636363637 387.8636363636362 L 188.1818181818182 165.21397209460474 L 307.49999999999994 78.0901904241141 L 426.8181818181818 54.80711083975882 L 546.1363636363637 51.38558301553462" stroke-linejoin="bevel" stroke-miterlimit="10" stroke-width="3" stroke-dasharray="6"/></g><g><path fill="none" stroke="none"/><path fill="none" stroke="#8da0cb" paint-order="fill stroke markers" d=" M 68.86363636363637 340.4629582134076 L 188.1818181818182 103.37611556411287 L 307.49999999999994 63.98681963645811 L 426.8181818181818 57.89483107137585 L 546.1363636363637 51.051775422927335" stroke-linejoin="bevel" stroke-miterlimit="10" stroke-width="3" stroke-dasharray="2,4"/></g></g></g><g clip-path="url(#WpQlpIGKsmEg)"><g><g/><g><path fill="#ffffff" stroke="#e5e5e5" paint-order="fill stroke markers" d=" M 401.703125 309 L 560 309 L 560 395 L 401.703125 395 L 401.703125 309 Z" fill-opacity="0.95" stroke-linejoin="bevel" stroke-miterlimit="10" stroke-opacity="0.5"/><text fill="#444444" stroke="none" font-family="helvetica" font-size="10pt" font-style="normal" font-weight="normal" text-decoration="normal" x="436.703125" y="329" text-anchor="start" dominant-baseline="central">Logistic Regression</text><g><path fill="none" stroke="#66c2a5" paint-order="fill stroke markers" d=" M 411.703125 329 L 431.703125 329" stroke-linejoin="bevel" stroke-miterlimit="10" stroke-width="3"/></g><text fill="#444444" stroke="none" font-family="helvetica" font-size="10pt" font-style="normal" font-weight="normal" text-decoration="normal" x="436.703125" y="352" text-anchor="start" dominant-baseline="central">CNN</text><g><path fill="none" stroke="#fc8d62" paint-order="fill stroke markers" d=" M 411.703125 352 L 431.703125 352" stroke-linejoin="bevel" stroke-miterlimit="10" stroke-width="3" stroke-dasharray="6"/></g><text fill="#444444" stroke="none" font-family="helvetica" font-size="10pt" font-style="normal" font-weight="normal" text-decoration="normal" x="436.703125" y="375" text-anchor="start" dominant-baseline="central">DBN</text><g><path fill="none" stroke="#8da0cb" paint-order="fill stroke markers" d=" M 411.703125 375 L 431.703125 375" stroke-linejoin="bevel" stroke-miterlimit="10" stroke-width="3" stroke-dasharray="2,4"/></g></g></g></g><g><g fill="#444444"><path fill="none" stroke="black" paint-order="fill stroke markers" d=" M 45 405 L 570 405" stroke-linejoin="bevel" stroke-miterlimit="10"/><path fill="none" stroke="black" paint-order="fill stroke markers" d=" M 69 411 L 69 403" stroke-linejoin="bevel" stroke-miterlimit="10"/><path fill="none" stroke="black" paint-order="fill stroke markers" d=" M 188 411 L 188 403" stroke-linejoin="bevel" stroke-miterlimit="10"/><path fill="none" stroke="black" paint-order="fill stroke markers" d=" M 307 411 L 307 403" stroke-linejoin="bevel" stroke-miterlimit="10"/><path fill="none" stroke="black" paint-order="fill stroke markers" d=" M 427 411 L 427 403" stroke-linejoin="bevel" stroke-miterlimit="10"/><path fill="" stroke="black" paint-order="fill stroke markers" d=" M 546 411 L 546 403" stroke-linejoin="bevel" stroke-miterlimit="10"/><g transform="translate(69,416) rotate(0,0,0)"><text fill="" stroke="none" font-family="helvetica" font-size="8pt" font-style="normal" font-weight="normal" text-decoration="normal" x="0" y="0" text-anchor="middle" dominant-baseline="hanging">3</text><g transform="rotate(0,0,0) translate(-69,-416) translate(188,416) rotate(0,0,0)"><text fill="" stroke="none" font-family="helvetica" font-size="8pt" font-style="normal" font-weight="normal" text-decoration="normal" x="0" y="0" text-anchor="middle" dominant-baseline="hanging">4</text><g transform="rotate(0,0,0) translate(-188,-416) translate(307,416) rotate(0,0,0)"><text fill="" stroke="none" font-family="helvetica" font-size="8pt" font-style="normal" font-weight="normal" text-decoration="normal" x="0" y="0" text-anchor="middle" dominant-baseline="hanging">5</text><g transform="rotate(0,0,0) translate(-307,-416) translate(427,416) rotate(0,0,0)"><text fill="" stroke="none" font-family="helvetica" font-size="8pt" font-style="normal" font-weight="normal" text-decoration="normal" x="0" y="0" text-anchor="middle" dominant-baseline="hanging">6</text><g transform="rotate(0,0,0) translate(-427,-416) translate(546,416) rotate(0,0,0)"><text fill="" stroke="none" font-family="helvetica" font-size="8pt" font-style="normal" font-weight="normal" text-decoration="normal" x="0" y="0" text-anchor="middle" dominant-baseline="hanging">7</text><g transform="rotate(0,0,0) translate(-546,-416) translate(308,434) rotate(0,0,0)"><text fill="" stroke="none" font-family="helvetica" font-size="10pt" font-style="italic" font-weight="normal" text-decoration="normal" x="0" y="0" text-anchor="middle" dominant-baseline="hanging">k</text><g transform="rotate(0,0,0) translate(-308,-434)"/></g></g></g></g></g></g></g><g fill="#444444"><path fill="none" stroke="black" paint-order="fill stroke markers" d=" M 45 405 L 45 28" stroke-linejoin="bevel" stroke-miterlimit="10"/><path fill="none" stroke="black" paint-order="fill stroke markers" d=" M 39 396 L 47 396" stroke-linejoin="bevel" stroke-miterlimit="10"/><path fill="none" stroke="black" paint-order="fill stroke markers" d=" M 39 313 L 47 313" stroke-linejoin="bevel" stroke-miterlimit="10"/><path fill="none" stroke="black" paint-order="fill stroke markers" d=" M 39 229 L 47 229" stroke-linejoin="bevel" stroke-miterlimit="10"/><path fill="none" stroke="black" paint-order="fill stroke markers" d=" M 39 146 L 47 146" stroke-linejoin="bevel" stroke-miterlimit="10"/><path fill="" stroke="black" paint-order="fill stroke markers" d=" M 39 62 L 47 62" stroke-linejoin="bevel" stroke-miterlimit="10"/><g transform="translate(34,396) rotate(0,0,0)"><text fill="" stroke="none" font-family="helvetica" font-size="8pt" font-style="normal" font-weight="normal" text-decoration="normal" x="0" y="0" text-anchor="end" dominant-baseline="central">50</text><g transform="rotate(0,0,0) translate(-34,-396) translate(34,313) rotate(0,0,0)"><text fill="" stroke="none" font-family="helvetica" font-size="8pt" font-style="normal" font-weight="normal" text-decoration="normal" x="0" y="0" text-anchor="end" dominant-baseline="central">60</text><g transform="rotate(0,0,0) translate(-34,-313) translate(34,229) rotate(0,0,0)"><text fill="" stroke="none" font-family="helvetica" font-size="8pt" font-style="normal" font-weight="normal" text-decoration="normal" x="0" y="0" text-anchor="end" dominant-baseline="central">70</text><g transform="rotate(0,0,0) translate(-34,-229) translate(34,146) rotate(0,0,0)"><text fill="" stroke="none" font-family="helvetica" font-size="8pt" font-style="normal" font-weight="normal" text-decoration="normal" x="0" y="0" text-anchor="end" dominant-baseline="central">80</text><g transform="rotate(0,0,0) translate(-34,-146) translate(34,62) rotate(0,0,0)"><text fill="" stroke="none" font-family="helvetica" font-size="8pt" font-style="normal" font-weight="normal" text-decoration="normal" x="0" y="0" text-anchor="end" dominant-baseline="central">90</text><g transform="rotate(0,0,0) translate(-34,-62) translate(16,217) rotate(-90,0,0)"><text fill="" stroke="none" font-family="helvetica" font-size="10pt" font-style="italic" font-weight="normal" text-decoration="normal" x="0" y="0" text-anchor="middle" dominant-baseline="alphabetic">mean accuracy %</text><g transform="rotate(90,0,0) translate(-16,-217)"/></g></g></g></g></g></g></g><g fill="#444444"><path fill="" stroke="none" d=""/><g transform="translate(45,23)"><path fill="none" stroke="none"/><text fill="" stroke="none" font-family="helvetica" font-size="10pt" font-style="normal" font-weight="bold" text-decoration="normal" x="0" y="0" text-anchor="start" dominant-baseline="text-after-edge">AMP</text></g></g></g></g></g></svg>