<svg version="1.1" xmlns="http://www.w3.org/2000/svg" xmlns:xlink="http://www.w3.org/1999/xlink" width="600" height="450" style="width: 600px; height: 450px;"><defs><clipPath id="bklRUsMwlXCP"><path fill="none" stroke="none" d=" M 45 28 L 570 28 L 570 405 L 45 405 L 45 28 Z"/></clipPath><clipPath id="uzlVZOXWPNoE"><path fill="none" stroke="none" d=" M 45 28 L 570 28 L 570 405 L 45 405 L 45 28 Z"/></clipPath></defs><g><g transform="scale(1,1) translate(0.5,0.5)"><rect fill="#FFFFFF" stroke="none" x="0" y="0" width="600" height="450"/><rect fill="#ffffff" stroke="none" x="0" y="0" width="600" height="450"/><rect fill="#FFFFFF" stroke="none" x="45" y="28" width="525" height="377"/><rect fill="#ffffff" stroke="none" x="45" y="28" width="525" height="377"/><g><rect fill="none" stroke="#e5e5e5" x="45" y="28" width="525" height="377" stroke-linejoin="bevel" stroke-miterlimit="10"/></g><g clip-path="url(#bklRUsMwlXCP)"><g><g><path fill="none" stroke="#e5e5e5" paint-order="fill stroke markers" d=" M 69 405 L 69 28" stroke-linejoin="bevel" stroke-miterlimit="10"/><path fill="none" stroke="#e5e5e5" paint-order="fill stroke markers" d=" M 188 405 L 188 28" stroke-linejoin="bevel" stroke-miterlimit="10"/><path fill="none" stroke="#e5e5e5" paint-order="fill stroke markers" d=" M 307 405 L 307 28" stroke-linejoin="bevel" stroke-miterlimit="10"/><path fill="none" stroke="#e5e5e5" paint-order="fill stroke markers" d=" M 427 405 L 427 28" stroke-linejoin="bevel" stroke-miterlimit="10"/><path fill="none" stroke="#e5e5e5" paint-order="fill stroke markers" d=" M 546 405 L 546 28" stroke-linejoin="bevel" stroke-miterlimit="10"/></g><g><path fill="none" stroke="#e5e5e5" paint-order="fill stroke markers" d=" M 45 352 L 570 352" stroke-linejoin="bevel" stroke-miterlimit="10"/><path fill="none" stroke="#e5e5e5" paint-order="fill stroke markers" d=" M 45 263 L 570 263" stroke-linejoin="bevel" stroke-miterlimit="10"/><path fill="none" stroke="#e5e5e5" paint-order="fill stroke markers" d=" M 45 173 L 570 173" stroke-linejoin="bevel" stroke-miterlimit="10"/><path fill="none" stroke="#e5e5e5" paint-order="fill stroke markers" d=" M 45 84 L 570 84" stroke-linejoin="bevel" stroke-miterlimit="10"/></g><g><path fill="none" stroke="none"/><path fill="none" stroke="#66c2a5" paint-order="fill stroke markers" d=" M 68.86363636363637 387.8636363636363 L 188.1818181818182 280.82126523994583 L 307.49999999999994 126.41039440469552 L 426.8181818181818 62.92250785441399 L 546.1363636363637 45.136363636363626" stroke-linejoin="bevel" stroke-miterlimit="10" stroke-width="3"/></g><g><path fill="none" stroke="none"/><path fill="none" stroke="#fc8d62" paint-order="fill stroke markers" d=" M 68.86363636363637 365.138392484613 L 188.1818181818182 293.9492547056054 L 307.49999999999994 174.31938783637077 L 426.8181818181818 80.78328387485504 L 546.1363636363637 59.68524993408397" stroke-linejoin="bevel" stroke-miterlimit="10" stroke-width="3" stroke-dasharray="6"/></g><g><path fill="none" stroke="none"/><path fill="none" stroke="#8da0cb" paint-order="fill stroke markers" d=" M 68.86363636363637 361.88224771151306 L 188.1818181818182 199.69947517738285 L 307.49999999999994 122.39949035844785 L 426.8181818181818 93.80786296725495 L 546.1363636363637 78.55304772889616" stroke-linejoin="bevel" stroke-miterlimit="10" stroke-width="3" stroke-dasharray="2,4"/></g></g></g><g clip-path="url(#uzlVZOXWPNoE)"><g><g/><g><path fill="#ffffff" stroke="#e5e5e5" paint-order="fill stroke markers" d=" M 401.703125 309 L 560 309 L 560 395 L 401.703125 395 L 401.703125 309 Z" fill-opacity="0.95" stroke-linejoin="bevel" stroke-miterlimit="10" stroke-opacity="0.5"/><text fill="#444444" stroke="none" font-family="helvetica" font-size="10pt" font-style="normal" font-weight="normal" text-decoration="normal" x="436.703125" y="329" text-anchor="start" dominant-baseline="central">Logistic Regression</text><g><path fill="none" stroke="#66c2a5" paint-order="fill stroke markers" d=" M 411.703125 329 L 431.703125 329" stroke-linejoin="bevel" stroke-miterlimit="10" stroke-width="3"/></g><text fill="#444444" stroke="none" font-family="helvetica" font-size="10pt" font-style="normal" font-weight="normal" text-decoration="normal" x="436.703125" y="352" text-anchor="start" dominant-baseline="central">CNN</text><g><path fill="none" stroke="#fc8d62" paint-order="fill stroke markers" d=" M 411.703125 352 L 431.703125 352" stroke-linejoin="bevel" stroke-miterlimit="10" stroke-width="3" stroke-dasharray="6"/></g><text fill="#444444" stroke="none" font-family="helvetica" font-size="10pt" font-style="normal" font-weight="normal" text-decoration="normal" x="436.703125" y="375" text-anchor="start" dominant-baseline="central">DBN</text><g><path fill="none" stroke="#8da0cb" paint-order="fill stroke markers" d=" M 411.703125 375 L 431.703125 375" stroke-linejoin="bevel" stroke-miterlimit="10" stroke-width="3" stroke-dasharray="2,4"/></g></g></g></g><g><g fill="#444444"><path fill="none" stroke="black" paint-order="fill stroke markers" d=" M 45 405 L 570 405" stroke-linejoin="bevel" stroke-miterlimit="10"/><path fill="none" stroke="black" paint-order="fill stroke markers" d=" M 69 411 L 69 403" stroke-linejoin="bevel" stroke-miterlimit="10"/><path fill="none" stroke="black" paint-order="fill stroke markers" d=" M 188 411 L 188 403" stroke-linejoin="bevel" stroke-miterlimit="10"/><path fill="none" stroke="black" paint-order="fill stroke markers" d=" M 307 411 L 307 403" stroke-linejoin="bevel" stroke-miterlimit="10"/><path fill="none" stroke="black" paint-order="fill stroke markers" d=" M 427 411 L 427 403" stroke-linejoin="bevel" stroke-miterlimit="10"/><path fill="" stroke="black" paint-order="fill stroke markers" d=" M 546 411 L 546 403" stroke-linejoin="bevel" stroke-miterlimit="10"/><g transform="translate(69,416) rotate(0,0,0)"><text fill="" stroke="none" font-family="helvetica" font-size="8pt" font-style="normal" font-weight="normal" text-decoration="normal" x="0" y="0" text-anchor="middle" dominant-baseline="hanging">3</text><g transform="rotate(0,0,0) translate(-69,-416) translate(188,416) rotate(0,0,0)"><text fill="" stroke="none" font-family="helvetica" font-size="8pt" font-style="normal" font-weight="normal" text-decoration="normal" x="0" y="0" text-anchor="middle" dominant-baseline="hanging">4</text><g transform="rotate(0,0,0) translate(-188,-416) translate(307,416) rotate(0,0,0)"><text fill="" stroke="none" font-family="helvetica" font-size="8pt" font-style="normal" font-weight="normal" text-decoration="normal" x="0" y="0" text-anchor="middle" dominant-baseline="hanging">5</text><g transform="rotate(0,0,0) translate(-307,-416) translate(427,416) rotate(0,0,0)"><text fill="" stroke="none" font-family="helvetica" font-size="8pt" font-style="normal" font-weight="normal" text-decoration="normal" x="0" y="0" text-anchor="middle" dominant-baseline="hanging">6</text><g transform="rotate(0,0,0) translate(-427,-416) translate(546,416) rotate(0,0,0)"><text fill="" stroke="none" font-family="helvetica" font-size="8pt" font-style="normal" font-weight="normal" text-decoration="normal" x="0" y="0" text-anchor="middle" dominant-baseline="hanging">7</text><g transform="rotate(0,0,0) translate(-546,-416) translate(308,434) rotate(0,0,0)"><text fill="" stroke="none" font-family="helvetica" font-size="10pt" font-style="italic" font-weight="normal" text-decoration="normal" x="0" y="0" text-anchor="middle" dominant-baseline="hanging">k</text><g transform="rotate(0,0,0) translate(-308,-434)"/></g></g></g></g></g></g></g><g fill="#444444"><path fill="none" stroke="black" paint-order="fill stroke markers" d=" M 45 405 L 45 28" stroke-linejoin="bevel" stroke-miterlimit="10"/><path fill="none" stroke="black" paint-order="fill stroke markers" d=" M 39 396 L 47 396" stroke-linejoin="bevel" stroke-miterlimit="10"/><path fill="none" stroke="black" paint-order="fill stroke markers" d=" M 39 352 L 47 352" stroke-linejoin="bevel" stroke-miterlimit="10"/><path fill="none" stroke="black" paint-order="fill stroke markers" d=" M 39 307 L 47 307" stroke-linejoin="bevel" stroke-miterlimit="10"/><path fill="none" stroke="black" paint-order="fill stroke markers" d=" M 39 263 L 47 263" stroke-linejoin="bevel" stroke-miterlimit="10"/><path fill="none" stroke="black" paint-order="fill stroke markers" d=" M 39 218 L 47 218" stroke-linejoin="bevel" stroke-miterlimit="10"/><path fill="none" stroke="black" paint-order="fill stroke markers" d=" M 39 173 L 47 173" stroke-linejoin="bevel" stroke-miterlimit="10"/><path fill="none" stroke="black" paint-order="fill stroke markers" d=" M 39 129 L 47 129" stroke-linejoin="bevel" stroke-miterlimit="10"/><path fill="none" stroke="black" paint-order="fill stroke markers" d=" M 39 84 L 47 84" stroke-linejoin="bevel" stroke-miterlimit="10"/><path fill="" stroke="black" paint-order="fill stroke markers" d=" M 39 40 L 47 40" stroke-linejoin="bevel" stroke-miterlimit="10"/><g transform="translate(34,396) rotate(0,0,0)"><text fill="" stroke="none" font-family="helvetica" font-size="8pt" font-style="normal" font-weight="normal" text-decoration="normal" x="0" y="0" text-anchor="end" dominant-baseline="central">10</text><g transform="rotate(0,0,0) translate(-34,-396) translate(34,352) rotate(0,0,0)"><text fill="" stroke="none" font-family="helvetica" font-size="8pt" font-style="normal" font-weight="normal" text-decoration="normal" x="0" y="0" text-anchor="end" dominant-baseline="central">20</text><g transform="rotate(0,0,0) translate(-34,-352) translate(34,307) rotate(0,0,0)"><text fill="" stroke="none" font-family="helvetica" font-size="8pt" font-style="normal" font-weight="normal" text-decoration="normal" x="0" y="0" text-anchor="end" dominant-baseline="central">30</text><g transform="rotate(0,0,0) translate(-34,-307) translate(34,263) rotate(0,0,0)"><text fill="" stroke="none" font-family="helvetica" font-size="8pt" font-style="normal" font-weight="normal" text-decoration="normal" x="0" y="0" text-anchor="end" dominant-baseline="central">40</text><g transform="rotate(0,0,0) translate(-34,-263) translate(34,218) rotate(0,0,0)"><text fill="" stroke="none" font-family="helvetica" font-size="8pt" font-style="normal" font-weight="normal" text-decoration="normal" x="0" y="0" text-anchor="end" dominant-baseline="central">50</text><g transform="rotate(0,0,0) translate(-34,-218) translate(34,173) rotate(0,0,0)"><text fill="" stroke="none" font-family="helvetica" font-size="8pt" font-style="normal" font-weight="normal" text-decoration="normal" x="0" y="0" text-anchor="end" dominant-baseline="central">60</text><g transform="rotate(0,0,0) translate(-34,-173) translate(34,129) rotate(0,0,0)"><text fill="" stroke="none" font-family="helvetica" font-size="8pt" font-style="normal" font-weight="normal" text-decoration="normal" x="0" y="0" text-anchor="end" dominant-baseline="central">70</text><g transform="rotate(0,0,0) translate(-34,-129) translate(34,84) rotate(0,0,0)"><text fill="" stroke="none" font-family="helvetica" font-size="8pt" font-style="normal" font-weight="normal" text-decoration="normal" x="0" y="0" text-anchor="end" dominant-baseline="central">80</text><g transform="rotate(0,0,0) translate(-34,-84) translate(34,40) rotate(0,0,0)"><text fill="" stroke="none" font-family="helvetica" font-size="8pt" font-style="normal" font-weight="normal" text-decoration="normal" x="0" y="0" text-anchor="end" dominant-baseline="central">90</text><g transform="rotate(0,0,0) translate(-34,-40) translate(16,217) rotate(-90,0,0)"><text fill="" stroke="none" font-family="helvetica" font-size="10pt" font-style="italic" font-weight="normal" text-decoration="normal" x="0" y="0" text-anchor="middle" dominant-baseline="alphabetic">mean accuracy %</text><g transform="rotate(90,0,0) translate(-16,-217)"/></g></g></g></g></g></g></g></g></g></g></g><g fill="#444444"><path fill="" stroke="none" d=""/><g transform="translate(45,23)"><path fill="none" stroke="none"/><text fill="" stroke="none" font-family="helvetica" font-size="10pt" font-style="normal" font-weight="bold" text-decoration="normal" x="0" y="0" text-anchor="start" dominant-baseline="text-after-edge">SG</text></g></g></g></g></g></svg>