<svg version="1.1" xmlns="http://www.w3.org/2000/svg" xmlns:xlink="http://www.w3.org/1999/xlink" width="600" height="450" style="width: 600px; height: 450px;"><defs><clipPath id="tbuThNIyTwcW"><path fill="none" stroke="none" d=" M 65 5 L 570 5 L 570 405 L 65 405 L 65 5 Z"/></clipPath><clipPath id="iJVMzdNfTGEg"><path fill="none" stroke="none" d=" M 65 5 L 570 5 L 570 405 L 65 405 L 65 5 Z"/></clipPath></defs><g><g transform="scale(1,1) translate(0.5,0.5)"><rect fill="#FFFFFF" stroke="none" x="0" y="0" width="600" height="450"/><rect fill="#ffffff" stroke="none" x="0" y="0" width="600" height="450"/><rect fill="#FFFFFF" stroke="none" x="65" y="5" width="505" height="400"/><rect fill="#ffffff" stroke="none" x="65" y="5" width="505" height="400"/><g><rect fill="none" stroke="#e5e5e5" x="65" y="5" width="505" height="400" stroke-linejoin="bevel" stroke-miterlimit="10"/></g><g clip-path="url(#tbuThNIyTwcW)"><g><g><path fill="none" stroke="#e5e5e5" paint-order="fill stroke markers" d=" M 88 405 L 88 5" stroke-linejoin="bevel" stroke-miterlimit="10"/><path fill="none" stroke="#e5e5e5" paint-order="fill stroke markers" d=" M 203 405 L 203 5" stroke-linejoin="bevel" stroke-miterlimit="10"/><path fill="none" stroke="#e5e5e5" paint-order="fill stroke markers" d=" M 318 405 L 318 5" stroke-linejoin="bevel" stroke-miterlimit="10"/><path fill="none" stroke="#e5e5e5" paint-order="fill stroke markers" d=" M 432 405 L 432 5" stroke-linejoin="bevel" stroke-miterlimit="10"/><path fill="none" stroke="#e5e5e5" paint-order="fill stroke markers" d=" M 547 405 L 547 5" stroke-linejoin="bevel" stroke-miterlimit="10"/></g><g><path fill="none" stroke="#e5e5e5" paint-order="fill stroke markers" d=" M 65 387 L 570 387" stroke-linejoin="bevel" stroke-miterlimit="10"/><path fill="none" stroke="#e5e5e5" paint-order="fill stroke markers" d=" M 65 289 L 570 289" stroke-linejoin="bevel" stroke-miterlimit="10"/><path fill="none" stroke="#e5e5e5" paint-order="fill stroke markers" d=" M 65 191 L 570 191" stroke-linejoin="bevel" stroke-miterlimit="10"/><path fill="none" stroke="#e5e5e5" paint-order="fill stroke markers" d=" M 65 93 L 570 93" stroke-linejoin="bevel" stroke-miterlimit="10"/></g><g><path fill="none" stroke="none"/><path fill="none" stroke="#66c2a5" paint-order="fill stroke markers" d=" M 87.9545454545455 386.81818181818176 L 202.72727272727275 386.4556261350488 L 317.50000000000006 386.04848590169274 L 432.2727272727273 385.4909340538477 L 547.0454545454545 385.41401345621006" stroke-linejoin="bevel" stroke-miterlimit="10" stroke-width="3"/></g><g><path fill="none" stroke="none"/><path fill="none" stroke="#fc8d62" paint-order="fill stroke markers" d=" M 87.9545454545455 380.5915035340225 L 202.72727272727275 375.003746351566 L 317.50000000000006 357.0222681112652 L 432.2727272727273 308.71401625352314 L 547.0454545454545 150.13983291332278" stroke-linejoin="bevel" stroke-miterlimit="10" stroke-width="3" stroke-dasharray="6"/></g><g><path fill="none" stroke="none"/><path fill="none" stroke="#8da0cb" paint-order="fill stroke markers" d=" M 87.9545454545455 315.8948137112592 L 202.72727272727275 307.2604619282273 L 317.50000000000006 270.94963816906073 L 432.2727272727273 187.94990281266215 L 547.0454545454545 23.181818181818187" stroke-linejoin="bevel" stroke-miterlimit="10" stroke-width="3" stroke-dasharray="2,4"/></g></g></g><g clip-path="url(#iJVMzdNfTGEg)"><g><g/><g><path fill="#ffffff" stroke="#e5e5e5" paint-order="fill stroke markers" d=" M 75 15 L 233.296875 15 L 233.296875 101 L 75 101 L 75 15 Z" fill-opacity="0.95" stroke-linejoin="bevel" stroke-miterlimit="10" stroke-opacity="0.5"/><text fill="#444444" stroke="none" font-family="helvetica" font-size="10pt" font-style="normal" font-weight="normal" text-decoration="normal" x="110" y="35" text-anchor="start" dominant-baseline="central">Logistic Regression</text><g><path fill="none" stroke="#66c2a5" paint-order="fill stroke markers" d=" M 85 35 L 105 35" stroke-linejoin="bevel" stroke-miterlimit="10" stroke-width="3"/></g><text fill="#444444" stroke="none" font-family="helvetica" font-size="10pt" font-style="normal" font-weight="normal" text-decoration="normal" x="110" y="58" text-anchor="start" dominant-baseline="central">CNN</text><g><path fill="none" stroke="#fc8d62" paint-order="fill stroke markers" d=" M 85 58 L 105 58" stroke-linejoin="bevel" stroke-miterlimit="10" stroke-width="3" stroke-dasharray="6"/></g><text fill="#444444" stroke="none" font-family="helvetica" font-size="10pt" font-style="normal" font-weight="normal" text-decoration="normal" x="110" y="81" text-anchor="start" dominant-baseline="central">DBN</text><g><path fill="none" stroke="#8da0cb" paint-order="fill stroke markers" d=" M 85 81 L 105 81" stroke-linejoin="bevel" stroke-miterlimit="10" stroke-width="3" stroke-dasharray="2,4"/></g></g></g></g><g><g fill="#444444"><path fill="none" stroke="black" paint-order="fill stroke markers" d=" M 65 405 L 570 405" stroke-linejoin="bevel" stroke-miterlimit="10"/><path fill="none" stroke="black" paint-order="fill stroke markers" d=" M 88 411 L 88 403" stroke-linejoin="bevel" stroke-miterlimit="10"/><path fill="none" stroke="black" paint-order="fill stroke markers" d=" M 203 411 L 203 403" stroke-linejoin="bevel" stroke-miterlimit="10"/><path fill="none" stroke="black" paint-order="fill stroke markers" d=" M 318 411 L 318 403" stroke-linejoin="bevel" stroke-miterlimit="10"/><path fill="none" stroke="black" paint-order="fill stroke markers" d=" M 432 411 L 432 403" stroke-linejoin="bevel" stroke-miterlimit="10"/><path fill="" stroke="black" paint-order="fill stroke markers" d=" M 547 411 L 547 403" stroke-linejoin="bevel" stroke-miterlimit="10"/><g transform="translate(88,416) rotate(0,0,0)"><text fill="" stroke="none" font-family="helvetica" font-size="8pt" font-style="normal" font-weight="normal" text-decoration="normal" x="0" y="0" text-anchor="middle" dominant-baseline="hanging">3</text><g transform="rotate(0,0,0) translate(-88,-416) translate(203,416) rotate(0,0,0)"><text fill="" stroke="none" font-family="helvetica" font-size="8pt" font-style="normal" font-weight="normal" text-decoration="normal" x="0" y="0" text-anchor="middle" dominant-baseline="hanging">4</text><g transform="rotate(0,0,0) translate(-203,-416) translate(318,416) rotate(0,0,0)"><text fill="" stroke="none" font-family="helvetica" font-size="8pt" font-style="normal" font-weight="normal" text-decoration="normal" x="0" y="0" text-anchor="middle" dominant-baseline="hanging">5</text><g transform="rotate(0,0,0) translate(-318,-416) translate(432,416) rotate(0,0,0)"><text fill="" stroke="none" font-family="helvetica" font-size="8pt" font-style="normal" font-weight="normal" text-decoration="normal" x="0" y="0" text-anchor="middle" dominant-baseline="hanging">6</text><g transform="rotate(0,0,0) translate(-432,-416) translate(547,416) rotate(0,0,0)"><text fill="" stroke="none" font-family="helvetica" font-size="8pt" font-style="normal" font-weight="normal" text-decoration="normal" x="0" y="0" text-anchor="middle" dominant-baseline="hanging">7</text><g transform="rotate(0,0,0) translate(-547,-416) translate(318,434) rotate(0,0,0)"><text fill="" stroke="none" font-family="helvetica" font-size="10pt" font-style="italic" font-weight="normal" text-decoration="normal" x="0" y="0" text-anchor="middle" dominant-baseline="hanging">k</text><g transform="rotate(0,0,0) translate(-318,-434)"/></g></g></g></g></g></g></g><g fill="#444444"><path fill="none" stroke="black" paint-order="fill stroke markers" d=" M 65 405 L 65 5" stroke-linejoin="bevel" stroke-miterlimit="10"/><path fill="none" stroke="black" paint-order="fill stroke markers" d=" M 59 387 L 67 387" stroke-linejoin="bevel" stroke-miterlimit="10"/><path fill="none" stroke="black" paint-order="fill stroke markers" d=" M 59 289 L 67 289" stroke-linejoin="bevel" stroke-miterlimit="10"/><path fill="none" stroke="black" paint-order="fill stroke markers" d=" M 59 191 L 67 191" stroke-linejoin="bevel" stroke-miterlimit="10"/><path fill="none" stroke="black" paint-order="fill stroke markers" d=" M 59 93 L 67 93" stroke-linejoin="bevel" stroke-miterlimit="10"/><path fill="none" stroke="black" paint-order="fill stroke markers" d=" M 61 387 L 65 387" stroke-linejoin="bevel" stroke-miterlimit="10"/><path fill="none" stroke="black" paint-order="fill stroke markers" d=" M 61 368 L 65 368" stroke-linejoin="bevel" stroke-miterlimit="10"/><path fill="none" stroke="black" paint-order="fill stroke markers" d=" M 61 348 L 65 348" stroke-linejoin="bevel" stroke-miterlimit="10"/><path fill="none" stroke="black" paint-order="fill stroke markers" d=" M 61 329 L 65 329" stroke-linejoin="bevel" stroke-miterlimit="10"/><path fill="none" stroke="black" paint-order="fill stroke markers" d=" M 61 309 L 65 309" stroke-linejoin="bevel" stroke-miterlimit="10"/><path fill="none" stroke="black" paint-order="fill stroke markers" d=" M 61 289 L 65 289" stroke-linejoin="bevel" stroke-miterlimit="10"/><path fill="none" stroke="black" paint-order="fill stroke markers" d=" M 61 270 L 65 270" stroke-linejoin="bevel" stroke-miterlimit="10"/><path fill="none" stroke="black" paint-order="fill stroke markers" d=" M 61 250 L 65 250" stroke-linejoin="bevel" stroke-miterlimit="10"/><path fill="none" stroke="black" paint-order="fill stroke markers" d=" M 61 231 L 65 231" stroke-linejoin="bevel" stroke-miterlimit="10"/><path fill="none" stroke="black" paint-order="fill stroke markers" d=" M 61 211 L 65 211" stroke-linejoin="bevel" stroke-miterlimit="10"/><path fill="none" stroke="black" paint-order="fill stroke markers" d=" M 61 191 L 65 191" stroke-linejoin="bevel" stroke-miterlimit="10"/><path fill="none" stroke="black" paint-order="fill stroke markers" d=" M 61 172 L 65 172" stroke-linejoin="bevel" stroke-miterlimit="10"/><path fill="none" stroke="black" paint-order="fill stroke markers" d=" M 61 152 L 65 152" stroke-linejoin="bevel" stroke-miterlimit="10"/><path fill="none" stroke="black" paint-order="fill stroke markers" d=" M 61 133 L 65 133" stroke-linejoin="bevel" stroke-miterlimit="10"/><path fill="none" stroke="black" paint-order="fill stroke markers" d=" M 61 113 L 65 113" stroke-linejoin="bevel" stroke-miterlimit="10"/><path fill="none" stroke="black" paint-order="fill stroke markers" d=" M 61 93 L 65 93" stroke-linejoin="bevel" stroke-miterlimit="10"/><path fill="none" stroke="black" paint-order="fill stroke markers" d=" M 61 74 L 65 74" stroke-linejoin="bevel" stroke-miterlimit="10"/><path fill="none" stroke="black" paint-order="fill stroke markers" d=" M 61 54 L 65 54" stroke-linejoin="bevel" stroke-miterlimit="10"/><path fill="none" stroke="black" paint-order="fill stroke markers" d=" M 61 35 L 65 35" stroke-linejoin="bevel" stroke-miterlimit="10"/><path fill="" stroke="black" paint-order="fill stroke markers" d=" M 61 15 L 65 15" stroke-linejoin="bevel" stroke-miterlimit="10"/><g transform="translate(54,387) rotate(0,0,0)"><text fill="" stroke="none" font-family="helvetica" font-size="8pt" font-style="normal" font-weight="normal" text-decoration="normal" x="0" y="0" text-anchor="end" dominant-baseline="central">0</text><g transform="rotate(0,0,0) translate(-54,-387) translate(54,289) rotate(0,0,0)"><text fill="" stroke="none" font-family="helvetica" font-size="8pt" font-style="normal" font-weight="normal" text-decoration="normal" x="0" y="0" text-anchor="end" dominant-baseline="central">10000</text><g transform="rotate(0,0,0) translate(-54,-289) translate(54,191) rotate(0,0,0)"><text fill="" stroke="none" font-family="helvetica" font-size="8pt" font-style="normal" font-weight="normal" text-decoration="normal" x="0" y="0" text-anchor="end" dominant-baseline="central">20000</text><g transform="rotate(0,0,0) translate(-54,-191) translate(54,93) rotate(0,0,0)"><text fill="" stroke="none" font-family="helvetica" font-size="8pt" font-style="normal" font-weight="normal" text-decoration="normal" x="0" y="0" text-anchor="end" dominant-baseline="central">30000</text><g transform="rotate(0,0,0) translate(-54,-93) translate(15,205) rotate(-90,0,0)"><text fill="" stroke="none" font-family="helvetica" font-size="10pt" font-style="italic" font-weight="normal" text-decoration="normal" x="0" y="0" text-anchor="middle" dominant-baseline="alphabetic">mean training time (s)</text><g transform="rotate(90,0,0) translate(-15,-205)"/></g></g></g></g></g></g></g></g></g></svg>